# xmcd
#
# Track frame offsets:
#	150
#	19817
#	36425
#	55670
#	69470
#	88225
#	105352
#	120022
#	139040
#	159660
#	183415
#	201677
#
# Disc length: 2895 seconds
#
# Revision: 0
# Processed by: cddbd v1.5.2PL0 Copyright (c) Steve Scherf et al.
# Submitted via: EasyCDDAExtractor 10.0.6.1
#
DISCID=a20b4d0c
DTITLE=Gian e Giovani - Ao Vivo
DYEAR=1999
DGENRE=Country
TTITLE0=O Grande Amor Da Minha Vida (Convite De Casamento)
TTITLE1=Mil Coracoes
TTITLE2=Eu Busco Uma Estrela (Yo Busco Una Estrella)
TTITLE3=Viola Caipira
TTITLE4=Quem Sera
TTITLE5=Escravo Do Amor (No Pude Enamorarme Mas)
TTITLE6=Me Da Um Beijo
TTITLE7=Nao Vivo Sem Voce
TTITLE8=Planeta Sonho
TTITLE9=Codinome Beija-Flor
TTITLE10=Que Raio De Amor E Esse
TTITLE11=Pra Te Ver Rebolar
EXTD=
EXTT0=
EXTT1=
EXTT2=
EXTT3=
EXTT4=
EXTT5=
EXTT6=
EXTT7=
EXTT8=
EXTT9=
EXTT10=
EXTT11=
PLAYORDER=
